Coordinates
version=1
nRows=14
nColumns=33
inDegrees=yes

Units are S.I. units (second, meters, Newtons, ...)
Angles are in degrees.

endheader
time	ground_thorax_rot_x	ground_thorax_rot_y	ground_thorax_rot_z	ground_thorax_tx	ground_thorax_ty	ground_thorax_tz	clav_prot_r	clav_elev_r	scapula_abduction_r	scapula_elevation_r	scapula_upward_rot_r	scapula_winging_r	shoulder_elv_r	plane_of_elev_r	axial_rot_r	elbow_flexion_r	pro_sup_r	wrist_flex_r	wrist_dev_r	clav_prot_l	clav_elev_l	scapula_abduction_l	scapula_elevation_l	scapula_upward_rot_l	scapula_winging_l	shoulder_elv_l	plane_of_elev_l	axial_rot_l	elbow_flexion_l	pro_sup_l	wrist_flex_l	wrist_dev_l
      3.22000000	    -32.84695299	    -21.37903596	     30.94705016	    -73.03539794	    860.81881739	    -41.14720399	     26.04348147	    -45.00000000	     39.50028831	    -45.00000000	    -45.00000000	   -106.15596872	  -2802.35076850	     22.57187903	   -151.23644252	   1799.87972854	   -197.20634164	     15.82903772	     13.69317428	     -0.11477589	     33.13167769	    -33.63870956	    -45.00000000	    -45.00000000	  -3511.28514651	   -447.25835805	    132.82997190	   -105.75189191	   1790.59118174	     40.35348839	     12.86024319	    -20.89361593
      3.23000000	    -32.87892325	    -21.17823599	     30.62337302	    -74.76450641	    862.46702256	    -41.22445142	     25.94949572	    -45.00000000	     39.58289730	    -45.00000000	    -45.00000000	   -106.26553804	  -2802.23026742	     22.49983856	   -151.27044790	   1799.78926722	   -197.27919535	     15.89300253	     13.72469809	     -0.11209516	     33.14226027	    -33.54436145	    -45.00000000	    -45.00000000	  -3511.37971466	   -447.21037665	    132.86972850	   -105.80169817	   1790.54067173	     40.47159770	     12.80142130	    -20.94231735
      3.24000000	    -33.03132252	    -20.93880433	     30.25564699	    -76.41575629	    864.03745414	    -41.32007328	     25.92586561	    -45.00000000	     39.52549802	    -45.00000000	    -45.00000000	   -106.35926309	  -2802.19964871	     22.49692755	   -151.25142980	   1799.77821153	   -197.24870384	     15.99968376	     13.70173233	     -0.13861934	     33.18153449	    -33.60484896	    -45.00000000	    -45.00000000	  -3511.25984672	   -447.23157839	    132.84565993	   -105.90295705	   1790.55012705	     40.60917725	     12.77935315	    -21.11082754
      3.25000000	    -33.24100184	    -20.67301101	     29.79780517	    -77.98674417	    865.51612381	    -41.43185963	     25.87755938	    -45.00000000	     39.42955572	    -45.00000000	    -45.00000000	   -106.46570090	  -2802.24847973	     22.55746914	   -151.14265890	   1799.72335602	   -197.09480410	     16.11121048	     13.70916426	     -0.17605741	     33.19066974	    -33.64059572	    -45.00000000	    -45.00000000	  -3511.13101720	   -447.24735664	    132.80561613	   -105.93454931	   1790.63545075	     40.76037871	     12.75528716	    -21.31302128
      3.26000000	    -33.28132817	    -20.50605602	     29.55038371	    -79.47581622	    866.89002852	    -41.55656807	     25.80006031	    -45.00000000	     39.49125459	    -45.00000000	    -45.00000000	   -106.57737122	  -2802.14285860	     22.46697595	   -151.08666394	   1799.62010227	   -196.81748591	     16.23233283	     13.70893396	     -0.16378526	     33.20532666	    -33.55401106	    -45.00000000	    -45.00000000	  -3511.19719801	   -447.22698738	    132.87820210	   -106.04012225	   1790.59524533	     40.99225980	     12.68501508	    -21.38319805
      3.27000000	    -33.47412748	    -20.26030450	     29.11851864	    -80.88181425	    868.14700300	    -41.69047456	     25.79419123	    -45.00000000	     39.38887144	    -45.00000000	    -45.00000000	   -106.64497464	  -2802.15685774	     22.54234074	   -150.92661229	   1799.62434786	   -196.44279808	     16.36118924	     13.67462177	     -0.22997242	     33.21796776	    -33.61885681	    -45.00000000	    -45.00000000	  -3511.02801958	   -447.26224316	    132.81483516	   -106.09544611	   1790.62777691	     41.23824395	     12.67872455	    -21.61752393
      3.28000000	    -33.53098701	    -20.08594876	     28.84135503	    -82.19846707	    869.27032708	    -41.82799119	     25.69471974	    -45.00000000	     39.43978359	    -45.00000000	    -45.00000000	   -106.76274547	  -2802.09712601	     22.46596926	   -150.76809460	   1799.49614973	   -195.93622665	     16.48064066	     13.69378172	     -0.20071470	     33.22005045	    -33.49623955	    -45.00000000	    -45.00000000	  -3511.12247232	   -447.26179265	    132.87108035	   -106.20554664	   1790.66911302	     41.54597874	     12.58337459	    -21.70733382
      3.29000000	    -33.62638208	    -19.88646257	     28.55465932	    -83.42473815	    870.24847354	    -41.96291300	     25.69902308	    -45.00000000	     39.36977376	    -45.00000000	    -45.00000000	   -106.86230563	  -2802.07599329	     22.46689870	   -150.58208181	   1799.45571864	   -195.33379813	     16.63912246	     13.61950383	     -0.27593852	     33.22214547	    -33.50791239	    -45.00000000	    -45.00000000	  -3511.02246122	   -447.31194261	    132.84663043	   -106.30896257	   1790.65218071	     41.91554570	     12.55839913	    -21.91149273
      3.30000000	    -33.68853469	    -19.73335448	     28.33695086	    -84.56311719	    871.07284115	    -42.08788035	     25.63481312	    -45.00000000	     39.34568047	    -45.00000000	    -45.00000000	   -106.96473759	  -2802.03504740	     22.40177845	   -150.36658302	   1799.38250733	   -194.61667476	     16.75814197	     13.59514060	     -0.26641580	     33.21718077	    -33.40120528	    -45.00000000	    -45.00000000	  -3511.08944143	   -447.35572869	    132.90892928	   -106.45435792	   1790.69476216	     42.33927644	     12.45855741	    -22.03593639
      3.31000000	    -33.74428881	    -19.58767578	     28.13048593	    -85.60914467	    871.72975353	    -42.19452606	     25.62855353	    -45.00000000	     39.29657408	    -45.00000000	    -45.00000000	   -107.05368768	  -2802.01183821	     22.37225674	   -150.12527530	   1799.33670177	   -193.81714364	     16.93216515	     13.49093846	     -0.33357001	     33.21160148	    -33.35494377	    -45.00000000	    -45.00000000	  -3511.04486504	   -447.43414299	    132.90975278	   -106.60329547	   1790.67164877	     42.83797397	     12.40190982	    -22.22575416
      3.32000000	    -33.80312036	    -19.45521464	     27.93717407	    -86.56363621	    872.21128935	    -42.27545810	     25.58867624	    -45.00000000	     39.24940356	    -45.00000000	    -45.00000000	   -107.15374127	  -2801.97728990	     22.31864647	   -149.85430562	   1799.26631389	   -192.94798372	     17.06852782	     13.44530329	     -0.35206253	     33.19679763	    -33.24947039	    -45.00000000	    -45.00000000	  -3511.11634928	   -447.48686595	    132.95767635	   -106.77566850	   1790.73690238	     43.37353011	     12.28287729	    -22.38431028
      3.33000000	    -33.82571059	    -19.37543147	     27.83608698	    -87.42188472	    872.50813088	    -42.32523805	     25.58413503	    -45.00000000	     39.23543297	    -45.00000000	    -45.00000000	   -107.26329887	  -2801.95950294	     22.23922514	   -149.55860468	   1799.21583383	   -192.02645418	     17.26642418	     13.32170218	     -0.41720760	     33.19066661	    -33.15953833	    -45.00000000	    -45.00000000	  -3511.10547684	   -447.58178810	    132.96114128	   -106.98318896	   1790.71936279	     43.98835580	     12.18753237	    -22.55546422
      3.34000000	    -33.89445115	    -19.18063616	     27.60722744	    -88.17748588	    872.61548192	    -42.34179310	     25.57095219	    -45.00000000	     39.12626141	    -45.00000000	    -45.00000000	   -107.39548675	  -2801.98732999	     22.19442939	   -149.23501478	   1799.03561731	   -191.11190951	     17.43515438	     13.32398340	     -0.48319111	     33.16818458	    -32.99412838	    -45.00000000	    -45.00000000	  -3511.27453167	   -447.59183390	    132.95074483	   -107.22180997	   1790.80398909	     44.58701400	     12.04760518	    -22.73914101
      3.35000000	    -33.81206005	    -19.31166195	     27.72890141	    -88.82797316	    872.53303298	    -42.32732119	     25.50961836	    -45.00000000	     39.14113035	    -45.00000000	    -45.00000000	   -107.37798871	  -2801.94295167	     22.06582014	   -148.97978677	   1799.22482806	   -190.24196633	     17.60466339	     13.05877772	     -0.49454298	     33.12188917	    -32.97779095	    -45.00000000	    -45.00000000	  -3511.17441973	   -447.75649984	    133.10556264	   -107.32475717	   1790.65413656	     45.26581980	     11.96808162	    -22.86353817
